<?xml version="1.0" encoding="utf-8"?>
<svg xmlns="http://www.w3.org/2000/svg" xmlns:xlink="http://www.w3.org/1999/xlink" version="1.1" style="width:0;height:0;position:absolute;overflow:hidden;">
  <defs>
<symbol viewBox="0 0 878 1026" aria-labelledby="acsi-ant-android-title" id="si-ant-android"><title id="acsi-ant-android-title">icon android</title><path d="M183 733q0 31 21.5 52t51.5 21h37v165q0 23 16 39t38.5 16 39-16 16.5-39V806h74v165q0 23 16 39t39 16 39-16 16-39V806h35q31 0 52-21.5t21-51.5V367H183v366zM73 334q-30 0-51.5 21.5T0 407v253q0 30 21.5 51.5T73 733t51.5-21.5T146 660V407q0-30-21.5-51.5T73 334zM579 84l38-64q6-10-4-16-9-6-15 4l-41 66q-50-18-117-18-68 0-118 19L281 8q-6-10-15.5-4T262 20l39 64q-118 58-118 226v15h512v-15q0-170-116-226zM321 220q-12 0-20-8.5t-8-20.5 8-20 20-8 20.5 8 8.5 20-8.5 20.5T321 220zm237 0q-12 0-20.5-8.5T529 191t8.5-20 20.5-8 20.5 8 8.5 20-8.5 20.5T558 220zm247 114q-30 0-51.5 21.5T732 407v253q0 30 21.5 51.5T805 733t51.5-21.5T878 660V407q0-30-21.5-51.5T805 334z"/></symbol>
<symbol viewBox="0 0 836.3333129882812 1024.666748046875" aria-labelledby="adsi-ant-apple-title" id="si-ant-apple"><title id="adsi-ant-apple-title">icon apple</title><path d="M809.333 349q-21-31-49-52.5t-55.5-31-46.5-13.5-36-4q-35-4-75 7.5t-73 25-48 13.5q-17 0-75-22.5t-94-21.5q-65 1-121.5 35.5t-90.5 92.5q-32 57-40 129t5.5 141.5 39.5 133 60 112.5q20 30 34.5 48t36 40 44.5 32.5 46 9.5q30-1 78.5-21.5t89.5-20.5q40 0 88 20.5t81 20.5q25-1 47-11t42.5-30.5 33.5-37.5 34-47q43-64 71-146-8-3-17.5-8t-33-22.5-40.5-38.5-31.5-58-15.5-80q0-36 11.5-69.5t25-53.5 34-39 26.5-23.5 14-9.5zm-186-349q-39 2-81 23.5t-70 54.5q-27 30-41.5 73t-9.5 85q41 3 80.5-17.5t68.5-54.5q28-35 43-78t10-86z"/></symbol>
<symbol fill-rule="evenodd" stroke-miterlimit="1.414" clip-rule="evenodd" stroke-linejoin="round" viewBox="0 0 15.99799919128418 14.554163932800293" aria-labelledby="afsi-simple-amazon-title" id="si-simple-amazon"><title id="afsi-simple-amazon-title">logo of amazon</title><path fill-rule="nonzero" d="M.03 11.288c.048-.078.125-.083.232-.015 2.424 1.406 5.062 2.11 7.913 2.11 1.9 0 3.777-.355 5.63-1.063l.21-.087c.092-.04.157-.068.196-.087.146-.058.26-.03.343.087.082.116.055.223-.08.32-.175.126-.398.272-.67.436-.833.495-1.764.878-2.792 1.15-1.027.27-2.03.407-3.01.407a11.65 11.65 0 0 1-4.29-.793A11.792 11.792 0 0 1 .089 11.52C.03 11.473 0 11.423 0 11.375c0-.03.01-.058.03-.087zm4.376-4.145c0-.67.165-1.242.495-1.717.33-.475.78-.834 1.353-1.077.523-.223 1.168-.383 1.934-.48.26-.03.688-.068 1.28-.116v-.247c0-.62-.07-1.038-.205-1.25-.203-.292-.523-.438-.96-.438H8.19c-.32.03-.597.13-.83.306a1.19 1.19 0 0 0-.45.728c-.04.194-.137.306-.292.335l-1.673-.204c-.164-.04-.247-.127-.247-.263 0-.03.005-.063.015-.102.165-.863.57-1.503 1.214-1.92.645-.417 1.4-.65 2.262-.698h.363c1.105 0 1.968.286 2.59.858.096.097.185.202.268.313.083.112.15.21.197.298.05.088.092.214.13.38.04.163.07.277.088.34.02.063.034.2.044.408.01.208.014.332.014.37v3.52c0 .253.036.483.11.69.07.21.142.36.21.452l.334.444a.436.436 0 0 1 .087.233c0 .077-.038.145-.116.203-.806.7-1.242 1.077-1.31 1.135-.116.088-.257.098-.422.03a4.75 4.75 0 0 1-.356-.335 9.911 9.911 0 0 1-.218-.232 3.22 3.22 0 0 1-.21-.284 6.058 6.058 0 0 0-.205-.285c-.544.592-1.077.96-1.6 1.106-.33.098-.738.146-1.223.146-.746 0-1.36-.23-1.84-.69-.48-.46-.72-1.113-.72-1.957zm2.502-.292c0 .378.094.68.283.91.19.227.443.34.763.34.03 0 .07-.004.124-.013a.715.715 0 0 1 .11-.015c.406-.107.722-.368.945-.785.106-.185.186-.386.24-.604.053-.217.082-.394.087-.53.005-.136.007-.36.007-.67v-.363c-.563 0-.99.04-1.28.117-.854.242-1.28.78-1.28 1.614zm6.108 4.684a.5.5 0 0 1 .087-.117 2.3 2.3 0 0 1 .7-.334c.367-.096.726-.15 1.075-.16a.867.867 0 0 1 .276.015c.437.04.7.112.786.22.04.057.058.144.058.26v.102c0 .34-.092.74-.276 1.2a2.82 2.82 0 0 1-.77 1.113c-.05.04-.093.058-.132.058a.13.13 0 0 1-.058-.014c-.06-.03-.073-.083-.044-.16.36-.844.538-1.43.538-1.76 0-.107-.02-.185-.058-.233-.097-.115-.368-.174-.815-.174-.164 0-.358.01-.58.03-.244.03-.467.058-.67.087-.06 0-.097-.01-.117-.03-.02-.02-.024-.038-.014-.058 0-.01.004-.024.014-.043z"/></symbol>
  </defs>
</svg>
